<svg width="89" height="16" viewBox="0 0 89 16" fill="none" xmlns="http://www.w3.org/2000/svg">
<path d="M6.90723 0.563477C7.79525 0.563477 8.60449 0.781901 9.33496 1.21875C10.0654 1.6556 10.6455 2.23926 11.0752 2.96973C11.512 3.7002 11.7305 4.50944 11.7305 5.39746C11.7305 6.06348 11.6051 6.6901 11.3545 7.27734C11.1038 7.85742 10.7565 8.36589 10.3125 8.80273C9.87565 9.24674 9.36361 9.59408 8.77637 9.84473C8.19629 10.0954 7.57324 10.2207 6.90723 10.2207H3.60938V15.9785H0.537109V0.563477H6.90723ZM8.6582 5.63379V5.15039C8.6582 4.20508 8.3252 3.40299 7.65918 2.74414C6.99316 2.07812 6.19108 1.74512 5.25293 1.74512H3.60938V9.0498H5.25293C6.19108 9.0498 6.99316 8.7168 7.65918 8.05078C8.3252 7.38477 8.6582 6.5791 8.6582 5.63379ZM20.7969 11.166C21.3125 11.431 21.7314 11.8285 22.0537 12.3584L24.1484 15.9785H20.5928L18.1221 11.6924H15.877V15.9785H12.8047V0.563477H18.4336C19.4577 0.563477 20.3887 0.814128 21.2266 1.31543C22.0716 1.81673 22.7448 2.48991 23.2461 3.33496C23.7474 4.17285 23.998 5.10384 23.998 6.12793C23.998 6.90137 23.8512 7.62467 23.5576 8.29785C23.2712 8.97103 22.8737 9.56185 22.3652 10.0703C21.9141 10.5215 21.3949 10.8867 20.8076 11.166C20.8076 11.166 20.804 11.166 20.7969 11.166ZM15.877 10.3389H16.7148C17.2949 10.3389 17.8392 10.2314 18.3477 10.0166C18.8633 9.7946 19.3109 9.49382 19.6904 9.11426C20.0771 8.72754 20.3779 8.27995 20.5928 7.77148C20.8148 7.26302 20.9258 6.71517 20.9258 6.12793C20.9258 5.35449 20.736 4.64909 20.3564 4.01172C19.9769 3.37435 19.4684 2.86589 18.8311 2.48633C18.1937 2.10677 17.4883 1.91699 16.7148 1.91699H15.877V10.3389ZM25.2227 0.563477H34.1709V2.46484H28.2949V7.35254H33.4727V9.25391H28.2949V14.0879H34.1709V15.9785H25.2227V0.563477ZM41.0029 0.563477C42.07 0.563477 43.069 0.763997 44 1.16504C44.931 1.56608 45.751 2.12109 46.46 2.83008C47.1618 3.5319 47.7132 4.34831 48.1143 5.2793C48.5153 6.21029 48.7158 7.20931 48.7158 8.27637C48.7158 9.69434 48.3685 10.987 47.6738 12.1543C46.9792 13.3216 46.0482 14.2526 44.8809 14.9473C43.7135 15.6348 42.4209 15.9785 41.0029 15.9785H35.2559V0.563477H41.0029ZM38.7578 14.6465C39.9323 14.6465 40.9993 14.36 41.959 13.7871C42.9258 13.2142 43.6956 12.4479 44.2686 11.4883C44.8415 10.5215 45.1279 9.45085 45.1279 8.27637C45.1279 7.39551 44.9632 6.57194 44.6338 5.80566C44.3044 5.03223 43.8496 4.35189 43.2695 3.76465C42.6823 3.18457 42.002 2.72982 41.2285 2.40039C40.4622 2.07096 39.6387 1.90625 38.7578 1.90625H38.3281V14.6465H38.7578ZM65.0439 0.574219H66.5801V15.9785H63.5078V1.74512H62.9277L59.2754 14.4639H57.0947L53.4531 1.74512H52.873V15.9785H49.8008V0.574219H51.3369H53.1201V0.563477H55.0859V0.574219H55.0967L55.4297 1.74512L58.1904 11.3809L60.9512 1.74512L61.2842 0.574219V0.563477H63.2607V0.574219H65.0439ZM67.6543 0.563477H76.6025V2.46484H70.7266V7.35254H75.9043V9.25391H70.7266V14.0879H76.6025V15.9785H67.6543V0.563477ZM81.7803 15.9785V2.46484H77.6875V0.563477H88.9561V2.46484H84.8525V15.9785H81.7803Z" fill="white"/>
</svg>
