<svg width="24" height="24" viewBox="0 0 24 24" fill="none" xmlns="http://www.w3.org/2000/svg">
<path d="M4.25203 12C4.08751 11.3608 4 10.6906 4 10C4 5.58172 7.58172 2 12 2C16.4183 2 20 5.58172 20 10C20 10.6906 19.9125 11.3608 19.748 12" stroke="black" stroke-width="1.5"/>
<path d="M4.5 17C5.88071 17 7 15.8807 7 14.5C7 13.1193 5.88071 12 4.5 12C3.11929 12 2 13.1193 2 14.5C2 15.8807 3.11929 17 4.5 17Z" stroke="black" stroke-width="1.5"/>
<path d="M19.5 17C20.8807 17 22 15.8807 22 14.5C22 13.1193 20.8807 12 19.5 12C18.1193 12 17 13.1193 17 14.5C17 15.8807 18.1193 17 19.5 17Z" stroke="black" stroke-width="1.5"/>
<path d="M3.31441 17C3.11538 17.3368 3 17.7371 3 18.1667V18.8333C3 20.0299 3.89543 21 5 21H19C20.1046 21 21 20.0299 21 18.8333V18.1667C21 17.7371 20.8846 17.3368 20.6856 17M6.5 16H17.5" stroke="black" stroke-width="1.5"/>
<path d="M19 22V21M5 22V21" stroke="black" stroke-width="1.5" stroke-linecap="round"/>
</svg>
