<svg width="24" height="24" viewBox="0 0 24 24" fill="none" xmlns="http://www.w3.org/2000/svg">
<path d="M9.75 17C9.75 16.5858 9.41421 16.25 9 16.25C8.58579 16.25 8.25 16.5858 8.25 17H9.75ZM6.75 12C6.75 11.5858 6.41421 11.25 6 11.25C5.58579 11.25 5.25 11.5858 5.25 12H6.75ZM5.25 17C5.25 17.4142 5.58579 17.75 6 17.75C6.41421 17.75 6.75 17.4142 6.75 17H5.25ZM11.75 7C11.75 6.58579 11.4142 6.25 11 6.25C10.5858 6.25 10.25 6.58579 10.25 7H11.75ZM10.25 12C10.25 12.4142 10.5858 12.75 11 12.75C11.4142 12.75 11.75 12.4142 11.75 12H10.25ZM4.25 7C4.25 7.41421 4.58579 7.75 5 7.75C5.41421 7.75 5.75 7.41421 5.75 7H4.25ZM17.75 17C17.75 16.5858 17.4142 16.25 17 16.25C16.5858 16.25 16.25 16.5858 16.25 17H17.75ZM14.75 12C14.75 11.5858 14.4142 11.25 14 11.25C13.5858 11.25 13.25 11.5858 13.25 12H14.75ZM13.25 17C13.25 17.4142 13.5858 17.75 14 17.75C14.4142 17.75 14.75 17.4142 14.75 17H13.25ZM19.75 7C19.75 6.58579 19.4142 6.25 19 6.25C18.5858 6.25 18.25 6.58579 18.25 7H19.75ZM18.25 12C18.25 12.4142 18.5858 12.75 19 12.75C19.4142 12.75 19.75 12.4142 19.75 12H18.25ZM13.75 2C13.75 1.58579 13.4142 1.25 13 1.25C12.5858 1.25 12.25 1.58579 12.25 2H13.75ZM12.25 7C12.25 7.41421 12.5858 7.75 13 7.75C13.4142 7.75 13.75 7.41421 13.75 7H12.25ZM12 2.75C14.3782 2.75 16.0864 2.75159 17.3864 2.92637C18.6648 3.09825 19.4355 3.42514 20.0052 3.9948L21.0659 2.93414C20.1711 2.03933 19.031 1.63399 17.5863 1.43975C16.1631 1.24841 14.3358 1.25 12 1.25V2.75ZM2 12.75H22V11.25H2V12.75ZM5.25 12V17H6.75V12H5.25ZM10.25 7V12H11.75V7H10.25ZM13.25 12V17H14.75V12H13.25ZM18.25 7V12H19.75V7H18.25ZM12.25 2V7H13.75V2H12.25ZM16.25 17V21.8731H17.75V17H16.25ZM12 22.75C14.0713 22.75 15.7385 22.7508 17.0734 22.6195L16.9266 21.1267C15.6819 21.2492 14.1003 21.25 12 21.25V22.75ZM17.0734 22.6195C18.7643 22.4532 20.0677 22.0641 21.0659 21.0659L20.0052 20.0052C19.3705 20.6399 18.486 20.9734 16.9266 21.1267L17.0734 22.6195ZM8.25 17V21.9799H9.75V17H8.25ZM12 21.25C10.8692 21.25 9.88517 21.25 9.01714 21.2301L8.98286 22.7297C9.87153 22.75 10.8741 22.75 12 22.75V21.25ZM9.01714 21.2301C6.19825 21.1657 4.87089 20.8813 3.9948 20.0052L2.93414 21.0659C4.28591 22.4176 6.21924 22.6665 8.98286 22.7297L9.01714 21.2301ZM21.25 12C21.25 14.1003 21.2492 15.6819 21.1267 16.9266L22.6195 17.0734C22.7508 15.7385 22.75 14.0713 22.75 12H21.25ZM21.1267 16.9266C20.9734 18.486 20.6399 19.3705 20.0052 20.0052L21.0659 21.0659C22.0641 20.0677 22.4532 18.7643 22.6195 17.0734L21.1267 16.9266ZM22.75 12C22.75 9.92865 22.7508 8.26146 22.6195 6.92658L21.1267 7.07342C21.2492 8.3181 21.25 9.89966 21.25 12H22.75ZM22.6195 6.92658C22.4532 5.23569 22.0641 3.93234 21.0659 2.93414L20.0052 3.9948C20.6399 4.62954 20.9734 5.51402 21.1267 7.07342L22.6195 6.92658ZM4.25 2.52396V7H5.75V2.52396H4.25ZM12 1.25C10.3342 1.25 8.93368 1.24973 7.76273 1.31672C6.59388 1.38359 5.59811 1.51956 4.7519 1.81618L5.2481 3.23174C5.89664 3.0044 6.72759 2.87839 7.8484 2.81427C8.96712 2.75027 10.3192 2.75 12 2.75V1.25ZM4.7519 1.81618C4.04824 2.06284 3.44794 2.42033 2.93414 2.93414L3.9948 3.9948C4.33063 3.65896 4.73019 3.41328 5.2481 3.23174L4.7519 1.81618ZM2.12687 7.75H21.8731V6.25H2.12687V7.75ZM2.75 12C2.75 9.89966 2.75083 8.3181 2.87326 7.07342L1.38047 6.92658C1.24917 8.26146 1.25 9.92865 1.25 12H2.75ZM2.87326 7.07342C3.02665 5.51402 3.36005 4.62954 3.9948 3.9948L2.93414 2.93414C1.93593 3.93234 1.54679 5.23569 1.38047 6.92658L2.87326 7.07342ZM2.12687 17.75H21.8731V16.25H2.12687V17.75ZM1.25 12C1.25 14.0713 1.24917 15.7385 1.38047 17.0734L2.87326 16.9266C2.75083 15.6819 2.75 14.1003 2.75 12H1.25ZM1.38047 17.0734C1.54679 18.7643 1.93593 20.0677 2.93414 21.0659L3.9948 20.0052C3.36005 19.3705 3.02665 18.486 2.87326 16.9266L1.38047 17.0734Z" fill="black"/>
</svg>
